<?xml version="1.0" encoding="UTF-8"?><svg id="a" xmlns="http://www.w3.org/2000/svg" viewBox="0 0 223.79 223.79"><defs><style>.b,.c,.d,.e{fill:#fff;}.c{font-family:SegoeScript, Segoe Script;font-size:30.93px;}.f,.g,.h,.i,.d,.e,.j,.k{stroke-miterlimit:10;}.f,.g,.h,.i,.k{stroke:#fff;}.f,.j{fill:#1d1d1b;}.g,.h,.i,.k{fill:none;}.h{stroke-dasharray:0 0 5.1 5.1;}.h,.k{stroke-width:.25px;}.i{stroke-width:2px;}.l{fill:#b71d1c;}.d,.e,.j{stroke:#1d1d1b;}.e{stroke-width:.5px;}</style></defs><circle class="b" cx="111.9" cy="111.9" r="111.9"/><g><path class="j" d="M196.3,55.28c-1.76-1.91-3.99-2.23-4.6-2.3h-24.51c-2.93-1.81-7.1-4.34-12.2-7.25-8.5-4.85-10.22-5.41-11.11-5.68-2.96-.89-4.98-.99-16.85-1.03-6.91-.02-10.36-.03-11.92-.01-.57,0-1.14,.02-1.71,.02,0,.02-.01,.03-.02,.05-1.6-.03-3.2-.06-4.82-.07-1.56-.01-5.01-.01-11.92,.01-11.87,.04-13.89,.14-16.85,1.03-.9,.27-2.61,.84-11.11,5.68-5.1,2.91-9.28,5.44-12.2,7.25H31.96c-.6,.07-2.83,.39-4.6,2.3-2.22,2.41-1.92,5.42-1.87,5.87v13.64h0c-.08,40.87,.02,70.35-.02,78.02,0,.38,0,.9,.03,1.52v2.52c-.05,.45-.35,3.46,1.87,5.87,1.76,1.91,3.99,2.23,4.6,2.3h20.61c13.98-8.4,27.96-16.81,41.93-25.21-9.18-5.83-15.28-16.09-15.28-27.77,0-18.16,14.72-32.89,32.89-32.89s31.49,13.38,32.78,30.36c17.76-10.68,35.51-21.35,53.27-32.03v-16.34c.05-.45,.35-3.46-1.87-5.87Z"/><rect class="j" x="34.93" y="48.9" width="18.03" height="7.66" rx="3.57" ry="3.57"/><path class="g" d="M20.13,64.47c4.4,0,8.81,0,13.21,0,2.52,1.59,5.03,3.18,7.55,4.77,8.74,.06,17.48,.11,26.21,.17l7.83-4.94H205.49"/><path class="h" d="M146.02,111.87c-1.8,45.35-66.59,45.34-68.38,0,0-15.53,11.52-25.62,12.45-26.39,2.11-1.74,10.38-8.14,21.74-7.8,15.65,.47,34.19,13.63,34.19,34.19h0Z"/><circle class="k" cx="111.82" cy="111.9" r="42.49"/><circle class="i" cx="111.83" cy="111.86" r="38"/><line class="g" x1="52.97" y1="69.41" x2="52.97" y2="167.19"/><line class="g" x1="35.67" y1="65.94" x2="22.37" y2="79.23"/><line class="g" x1="38.74" y1="68.03" x2="23.14" y2="83.64"/><rect class="f" x="86.04" y="34.9" width="19.06" height="9.11" rx="2.32" ry="2.32"/><g><path class="d" d="M97.98,122.66l.12,.07-3.65-12.62-6.42,11.64c2.6,6.2,7.57,11.16,13.76,13.77l-3.7-12.78-.12-.07Z"/><path class="d" d="M122.66,125.17l.16-.29c-4.38,1.35-8.76,2.7-13.14,4.05l12.98-3.75Z"/><path class="d" d="M135.5,101.89l-6.45,11.69,.05,.16-.05-.16c-2.05,3.76-4.1,7.51-6.16,11.27l-.07,.02-.16,.29,12.7-3.67-12.7,3.67-.02,.04,.02-.04-12.98,3.75c-3.73-1.99-7.45-3.99-11.18-5.98-1.35-4.28-2.7-8.56-4.05-12.84l3.65,12.62,23.28,12.84-23.28-12.84,3.7,12.78c3.06,1.29,6.42,2,9.95,2,14.2,0,25.72-11.51,25.72-25.72,0-3.51-.7-6.85-1.98-9.9Z"/><path class="d" d="M94.42,109.97l.04,.13,6.39-11.59-12.85,3.72,12.85-3.72,.02-.04-.02,.04,12.83-3.71c3.9,2.14,7.8,4.28,11.7,6.42l-23.41-12.91,23.41,12.91c1.22,4.12,2.44,8.25,3.67,12.37l-7.38-25.52,7.38,25.52,6.45-11.69c-3.88-9.29-13.05-15.82-23.74-15.82-14.2,0-25.72,11.51-25.72,25.72,0,3.53,.71,6.89,2,9.95l6.42-11.64-.04-.13Z"/><path d="M122.89,124.85c2.05-3.76,4.1-7.51,6.16-11.27l-6.22,11.29,.07-.02Z"/><path d="M113.82,94.8l-12.83,3.71-6.39,11.59c1.16,4.25,2.32,8.5,3.49,12.76,3.92,2.02,7.83,4.04,11.75,6.06,4.38-1.35,8.76-2.7,13.14-4.05l6.22-11.29c-1.22-4.12-2.44-8.25-3.67-12.37-3.9-2.14-7.8-4.28-11.7-6.42Z"/></g><path class="d" d="M199.57,81.34v82.95H61.26L199.57,81.34Z"/><path class="e" d="M198.35,82.22v82.95H60.04L198.35,82.22Z"/><path class="e" d="M197.29,82.83v82.95H58.98L197.29,82.83Z"/><path class="e" d="M196.08,83.64v82.95H57.77L196.08,83.64Z"/><path class="j" d="M194.68,84.24v82.95H56.37L194.68,84.24Z"/><path class="l" d="M186.49,188.05c-.31-.47-3.68-5.26-9.77-5.35-6.31-.09-9.84,4.94-10.12,5.35v-20.33h19.88v20.33Z"/><text class="c" transform="translate(115.34 154.94) scale(.83 1)"><tspan x="0" y="0">Imago</tspan></text></g></svg>